# xmcd CD database file
#
# Track frame offsets:
#	150
#	14460
#	28149
#	47772
#	62140
#
# Disc length: 1062 seconds
#
# Revision: 0
# Processed by: cddbd v1.4PL0 Copyright (c) Steve Scherf et al.
# Submitted via: CDex 1.50Beta7
#
DISCID=3e042405
DTITLE=Red Centre - Sleepy Eye Opener
DYEAR=2002
DGENRE=Jazz
TTITLE0=Sleepy-Eye Opener
TTITLE1=Shame About the Benjamins
TTITLE2=Riders
TTITLE3=Self-Improvement Thru Jazz
TTITLE4=Extra Track
EXTD=YEAR: 2002
EXTT0=
EXTT1=
EXTT2=
EXTT3=
EXTT4=
PLAYORDER=
